<svg width="314" height="454" viewBox="0 0 314 454" fill="none" xmlns="http://www.w3.org/2000/svg">
<path d="M92 23C92 10.2974 102.297 0 115 0H291C303.703 0 314 10.2975 314 23V59C314 71.7026 303.703 82 291 82H214.054C207.067 82 200.459 85.1761 196.094 90.632L179.728 111.091C177.312 114.11 172.713 114.09 170.324 111.049L154.407 90.7901C150.046 85.2404 143.379 82 136.321 82H115C102.297 82 92 71.7025 92 59V23Z" fill="#1A7674"/>
<path d="M139.014 22.4L136.494 35H134.172L134.874 31.49H131.76H131.634L128.592 35H125.982L129.492 31.094C128.832 30.806 128.328 30.386 127.98 29.834C127.632 29.282 127.458 28.622 127.458 27.854C127.458 26.762 127.722 25.808 128.25 24.992C128.79 24.164 129.534 23.528 130.482 23.084C131.43 22.628 132.516 22.4 133.74 22.4H139.014ZM133.434 24.38C132.306 24.38 131.43 24.662 130.806 25.226C130.182 25.778 129.87 26.552 129.87 27.548C129.87 28.196 130.074 28.7 130.482 29.06C130.89 29.408 131.496 29.582 132.3 29.582H135.27L136.296 24.38H133.434ZM156.253 24.38H152.059L149.971 35H147.649L149.737 24.38H145.615L146.011 22.4H156.667L156.253 24.38ZM162.308 35.18C161.06 35.18 159.98 34.958 159.068 34.514C158.168 34.058 157.478 33.428 156.998 32.624C156.518 31.808 156.278 30.866 156.278 29.798C156.278 28.382 156.596 27.098 157.232 25.946C157.88 24.794 158.792 23.888 159.968 23.228C161.144 22.556 162.488 22.22 164 22.22C165.248 22.22 166.322 22.448 167.222 22.904C168.134 23.348 168.83 23.978 169.31 24.794C169.79 25.598 170.03 26.534 170.03 27.602C170.03 29.018 169.706 30.302 169.058 31.454C168.422 32.606 167.516 33.518 166.34 34.19C165.164 34.85 163.82 35.18 162.308 35.18ZM162.506 33.128C163.526 33.128 164.426 32.888 165.206 32.408C165.998 31.916 166.604 31.262 167.024 30.446C167.456 29.618 167.672 28.718 167.672 27.746C167.672 26.69 167.33 25.85 166.646 25.226C165.974 24.59 165.02 24.272 163.784 24.272C162.764 24.272 161.858 24.518 161.066 25.01C160.286 25.49 159.686 26.144 159.266 26.972C158.846 27.788 158.636 28.682 158.636 29.654C158.636 30.71 158.972 31.556 159.644 32.192C160.316 32.816 161.27 33.128 162.506 33.128ZM183.367 22.4L180.847 35H178.543L179.479 30.302C178.291 30.71 177.175 30.914 176.131 30.914C174.715 30.914 173.629 30.614 172.873 30.014C172.117 29.414 171.739 28.562 171.739 27.458C171.739 27.17 171.781 26.798 171.865 26.342L172.657 22.4H174.961L174.187 26.234C174.127 26.534 174.097 26.786 174.097 26.99C174.097 28.262 174.895 28.898 176.491 28.898C177.631 28.898 178.771 28.646 179.911 28.142L181.063 22.4H183.367ZM198.094 22.4L195.574 35H193.252L194.314 29.654H187.798L186.736 35H184.396L186.916 22.4H189.256L188.23 27.566H194.746L195.772 22.4H198.094ZM205.444 35.18C204.196 35.18 203.116 34.958 202.204 34.514C201.304 34.058 200.614 33.428 200.134 32.624C199.654 31.808 199.414 30.866 199.414 29.798C199.414 28.382 199.732 27.098 200.368 25.946C201.016 24.794 201.928 23.888 203.104 23.228C204.28 22.556 205.624 22.22 207.136 22.22C208.384 22.22 209.458 22.448 210.358 22.904C211.27 23.348 211.966 23.978 212.446 24.794C212.926 25.598 213.166 26.534 213.166 27.602C213.166 29.018 212.842 30.302 212.194 31.454C211.558 32.606 210.652 33.518 209.476 34.19C208.3 34.85 206.956 35.18 205.444 35.18ZM205.642 33.128C206.662 33.128 207.562 32.888 208.342 32.408C209.134 31.916 209.74 31.262 210.16 30.446C210.592 29.618 210.808 28.718 210.808 27.746C210.808 26.69 210.466 25.85 209.782 25.226C209.11 24.59 208.156 24.272 206.92 24.272C205.9 24.272 204.994 24.518 204.202 25.01C203.422 25.49 202.822 26.144 202.402 26.972C201.982 27.788 201.772 28.682 201.772 29.654C201.772 30.71 202.108 31.556 202.78 32.192C203.452 32.816 204.406 33.128 205.642 33.128ZM223.372 22.4L225.478 26.612L229.312 22.4H232.102L226.648 28.448L229.87 35H227.17L224.83 30.41L220.618 35H217.846L223.732 28.538L220.744 22.4H223.372ZM237.718 35.18C236.47 35.18 235.39 34.958 234.478 34.514C233.578 34.058 232.888 33.428 232.408 32.624C231.928 31.808 231.688 30.866 231.688 29.798C231.688 28.382 232.006 27.098 232.642 25.946C233.29 24.794 234.202 23.888 235.378 23.228C236.554 22.556 237.898 22.22 239.41 22.22C240.658 22.22 241.732 22.448 242.632 22.904C243.544 23.348 244.24 23.978 244.72 24.794C245.2 25.598 245.44 26.534 245.44 27.602C245.44 29.018 245.116 30.302 244.468 31.454C243.832 32.606 242.926 33.518 241.75 34.19C240.574 34.85 239.23 35.18 237.718 35.18ZM237.916 33.128C238.936 33.128 239.836 32.888 240.616 32.408C241.408 31.916 242.014 31.262 242.434 30.446C242.866 29.618 243.082 28.718 243.082 27.746C243.082 26.69 242.74 25.85 242.056 25.226C241.384 24.59 240.43 24.272 239.194 24.272C238.174 24.272 237.268 24.518 236.476 25.01C235.696 25.49 235.096 26.144 234.676 26.972C234.256 27.788 234.046 28.682 234.046 29.654C234.046 30.71 234.382 31.556 235.054 32.192C235.726 32.816 236.68 33.128 237.916 33.128ZM258.777 22.4L256.257 35H253.953L254.889 30.302C253.701 30.71 252.585 30.914 251.541 30.914C250.125 30.914 249.039 30.614 248.283 30.014C247.527 29.414 247.149 28.562 247.149 27.458C247.149 27.17 247.191 26.798 247.275 26.342L248.067 22.4H250.371L249.597 26.234C249.537 26.534 249.507 26.786 249.507 26.99C249.507 28.262 250.305 28.898 251.901 28.898C253.041 28.898 254.181 28.646 255.321 28.142L256.473 22.4H258.777ZM273.162 22.4L265.638 32.66C265.002 33.536 264.318 34.19 263.586 34.622C262.866 35.042 262.122 35.252 261.354 35.252C260.73 35.252 260.106 35.114 259.482 34.838L260.274 33.056C260.67 33.188 261.036 33.254 261.372 33.254C262.2 33.254 262.944 32.84 263.604 32.012L263.928 31.67L260.796 22.4H263.226L265.494 29.744L270.804 22.4H273.162ZM140.508 47.4L137.988 60H135.666L136.728 54.654H130.212L129.15 60H126.81L129.33 47.4H131.67L130.644 52.566H137.16L138.186 47.4H140.508ZM150.594 57.084H144.258L142.44 60H139.938L148.128 47.4H150.45L153.582 60H151.26L150.594 57.084ZM150.162 55.248L148.884 49.704L145.41 55.248H150.162ZM166.789 47.22C167.845 47.22 168.775 47.448 169.579 47.904C170.383 48.348 171.001 48.972 171.433 49.776C171.865 50.58 172.081 51.498 172.081 52.53C172.081 53.934 171.721 55.224 171.001 56.4C170.281 57.564 169.315 58.488 168.103 59.172C166.891 59.844 165.595 60.18 164.215 60.18C163.171 60.18 162.247 60 161.443 59.64C160.639 59.28 160.009 58.758 159.553 58.074L161.317 56.634C162.049 57.63 163.111 58.128 164.503 58.128C165.619 58.128 166.627 57.798 167.527 57.138C168.427 56.466 169.051 55.596 169.399 54.528H163.711L164.071 52.674H169.669C169.633 51.654 169.309 50.832 168.697 50.208C168.085 49.584 167.269 49.272 166.249 49.272C164.881 49.272 163.627 49.77 162.487 50.766L161.299 49.326C162.019 48.642 162.847 48.12 163.783 47.76C164.731 47.4 165.733 47.22 166.789 47.22ZM184.396 49.38H180.202L178.114 60H175.792L177.88 49.38H173.758L174.154 47.4H184.81L184.396 49.38ZM190.45 60.18C189.202 60.18 188.122 59.958 187.21 59.514C186.31 59.058 185.62 58.428 185.14 57.624C184.66 56.808 184.42 55.866 184.42 54.798C184.42 53.382 184.738 52.098 185.374 50.946C186.022 49.794 186.934 48.888 188.11 48.228C189.286 47.556 190.63 47.22 192.142 47.22C193.39 47.22 194.464 47.448 195.364 47.904C196.276 48.348 196.972 48.978 197.452 49.794C197.932 50.598 198.172 51.534 198.172 52.602C198.172 54.018 197.848 55.302 197.2 56.454C196.564 57.606 195.658 58.518 194.482 59.19C193.306 59.85 191.962 60.18 190.45 60.18ZM190.648 58.128C191.668 58.128 192.568 57.888 193.348 57.408C194.14 56.916 194.746 56.262 195.166 55.446C195.598 54.618 195.814 53.718 195.814 52.746C195.814 51.69 195.472 50.85 194.788 50.226C194.116 49.59 193.162 49.272 191.926 49.272C190.906 49.272 190 49.518 189.208 50.01C188.428 50.49 187.828 51.144 187.408 51.972C186.988 52.788 186.778 53.682 186.778 54.654C186.778 55.71 187.114 56.556 187.786 57.192C188.458 57.816 189.412 58.128 190.648 58.128ZM210.517 49.38H206.323L204.235 60H201.913L204.001 49.38H199.879L200.275 47.4H210.931L210.517 49.38ZM223.198 53.538L226.402 60H223.9L221.272 54.672H218.806L217.744 60H215.404L217.924 47.4H220.264L219.202 52.674H221.488L226.168 47.4H228.796L223.198 53.538ZM241.521 47.4L233.997 57.66C233.361 58.536 232.677 59.19 231.945 59.622C231.225 60.042 230.481 60.252 229.713 60.252C229.089 60.252 228.465 60.114 227.841 59.838L228.633 58.056C229.029 58.188 229.395 58.254 229.731 58.254C230.559 58.254 231.303 57.84 231.963 57.012L232.287 56.67L229.155 47.4H231.585L233.853 54.744L239.163 47.4H241.521ZM247.954 47.4C249.478 47.4 250.654 47.736 251.482 48.408C252.322 49.068 252.742 49.998 252.742 51.198C252.742 52.266 252.496 53.19 252.004 53.97C251.524 54.738 250.828 55.332 249.916 55.752C249.016 56.16 247.954 56.364 246.73 56.364H243.652L242.914 60H240.574L243.094 47.4H247.954ZM246.82 54.384C247.96 54.384 248.836 54.132 249.448 53.628C250.072 53.112 250.384 52.374 250.384 51.414C250.384 50.742 250.15 50.238 249.682 49.902C249.226 49.554 248.566 49.38 247.702 49.38H245.038L244.048 54.384H246.82ZM260.114 60.18C258.854 60.18 257.762 59.958 256.838 59.514C255.926 59.058 255.224 58.422 254.732 57.606C254.24 56.79 253.994 55.854 253.994 54.798C253.994 53.382 254.318 52.098 254.966 50.946C255.614 49.794 256.526 48.888 257.702 48.228C258.878 47.556 260.228 47.22 261.752 47.22C262.844 47.22 263.804 47.4 264.632 47.76C265.472 48.12 266.108 48.642 266.54 49.326L264.848 50.748C264.14 49.764 263.054 49.272 261.59 49.272C260.546 49.272 259.628 49.512 258.836 49.992C258.044 50.472 257.432 51.126 257 51.954C256.568 52.77 256.352 53.67 256.352 54.654C256.352 55.722 256.694 56.568 257.378 57.192C258.062 57.816 259.034 58.128 260.294 58.128C261.746 58.128 262.94 57.642 263.876 56.67L265.244 58.146C264.644 58.83 263.906 59.34 263.03 59.676C262.154 60.012 261.182 60.18 260.114 60.18ZM268.886 47.4H271.568L269.444 55.824H267.662L268.886 47.4ZM267.896 60.126C267.5 60.126 267.17 60 266.906 59.748C266.654 59.496 266.528 59.19 266.528 58.83C266.528 58.398 266.672 58.044 266.96 57.768C267.248 57.48 267.602 57.336 268.022 57.336C268.418 57.336 268.742 57.462 268.994 57.714C269.258 57.954 269.39 58.26 269.39 58.632C269.39 59.052 269.246 59.406 268.958 59.694C268.67 59.982 268.316 60.126 267.896 60.126Z" fill="white"/>
<path fill-rule="evenodd" clip-rule="evenodd" d="M154.432 125.09C137.273 126.226 116.917 133.633 100.529 144.706C90.2147 151.674 81.6546 159.888 74.5979 169.587C73.4225 171.203 70.7621 174.8 68.6865 177.579C56.4897 193.911 51.4145 204.04 48.6813 217.5C47.2998 224.305 46.8116 230.219 46.806 240.221C46.8017 247.621 47.0454 251.316 47.8631 256.26C49.1543 264.063 51.5951 270.948 55.362 277.411C56.6467 279.615 59.7078 283.817 62.7924 287.61C63.5925 288.594 65.3541 290.916 66.7069 292.769C69.7565 296.948 71.9561 299.213 76.311 302.661C85.0748 309.599 91.5398 313.822 98.3302 317.046C108.778 322.005 115.727 325.211 118.245 326.234L121.176 327.425L121.025 328.13C120.941 328.518 120.861 330.874 120.845 333.365L120.818 337.894L120.291 337.766C120.001 337.696 117.076 337.331 113.79 336.955C104.765 335.923 102.869 335.427 94.348 331.872C90.4185 330.233 85.7277 328.336 83.924 327.656C80.0086 326.181 68.3442 322.984 62.1123 321.679C57.9458 320.806 57.2803 320.59 52.1629 318.44C43.501 314.8 40.9355 312.741 38.4993 307.474C35.527 301.048 30.0789 294.948 24.7355 292.063C20.508 289.78 13.7884 289.152 9.13955 290.603C5.92147 291.608 2.47242 294.3 1.06483 296.905C0.133234 298.629 -0.222353 301.021 0.138855 303.135C0.494208 305.215 1.16767 306.473 3.13885 308.738C6.53379 312.641 8.48975 316.276 8.87298 319.396C9.52231 324.684 9.69542 325.135 11.9276 327.358C14.9948 330.412 18.1962 331.334 22.8755 330.51C24.3204 330.256 24.5349 330.257 24.1777 330.52C23.4933 331.022 24.0353 330.883 25.2136 330.254C25.8107 329.935 26.8765 329.451 27.582 329.178L28.8648 328.683L31.0679 331.11C32.2796 332.444 34.9929 335.241 37.0976 337.323C40.0664 340.261 41.6483 341.611 44.1529 343.346C47.6895 345.795 46.9212 345.459 63.8959 351.987C72.3552 355.241 79.1671 358.223 84.861 361.164C87.5665 362.562 92.4681 364.867 95.7534 366.287C99.0388 367.707 103.677 369.793 106.06 370.923C109.57 372.586 111.217 373.21 114.727 374.206C117.111 374.882 119.868 375.509 120.854 375.6L122.648 375.764L122.804 377.333C122.89 378.196 122.851 382.022 122.717 385.836C122.584 389.649 122.412 395.784 122.337 399.469C122.192 406.504 121.893 411.616 120.901 424.032C120.439 429.826 120.279 433.685 120.205 440.838C120.152 445.944 120.084 450.995 120.053 452.061L119.998 454L120.701 453.892C121.087 453.832 122.423 453.717 123.669 453.637L125.935 453.489L125.809 447.81C125.721 443.839 125.797 440.399 126.063 436.372C127.292 417.721 128.344 399.006 128.467 393.592C128.752 381.112 127.802 364.838 126.341 357.168C126.063 355.71 126.045 354.084 126.234 347.531C126.428 340.77 126.562 338.945 127.176 334.712C127.569 331.997 127.922 329.743 127.96 329.703C127.998 329.663 128.647 329.803 129.401 330.014C132.08 330.763 138.549 332.003 141.666 332.366C143.405 332.568 145.25 332.815 145.765 332.915L146.702 333.096L145.297 333.415C143.491 333.824 140.92 335.102 139.487 336.302C136.645 338.682 135.365 344.381 136.147 351.158C136.465 353.906 136.666 354.745 137.494 356.773C139.167 360.873 140.482 362.188 143.647 362.924C144.931 363.223 145.626 363.242 147.706 363.033C151.453 362.658 157.789 361.68 159.091 361.278C159.72 361.083 161.123 360.756 162.206 360.552L164.177 360.182L164.625 360.753C166.746 363.458 175.016 368.561 181.546 371.192C187.079 373.422 193.542 375.759 197.299 376.888C200.125 377.737 204.875 379.456 208.075 380.788C208.59 381.002 211.243 382.279 213.971 383.626C216.699 384.973 219.228 386.135 219.593 386.207C220.116 386.312 220.489 386.157 221.368 385.469C222.796 384.35 223.204 383.143 222.539 382.001C221.923 380.943 217.296 378.657 208.543 375.088C198.76 371.098 195.922 370.026 183.245 365.527C179.563 364.221 173.845 361.475 170.62 359.465C169.427 358.721 168.333 358.225 167.675 358.13L166.629 357.978L167.473 357.04C168.034 356.416 168.565 355.396 169.058 353.993C169.736 352.062 169.786 351.726 169.648 349.997C169.565 348.959 169.349 347.442 169.168 346.626C168.759 344.787 168.759 344.812 169.215 345.192C169.826 345.702 177.718 345.548 181.558 344.952C185.621 344.321 193.133 344.057 200.021 344.303C207.113 344.556 216.874 344.366 218.187 343.948C219.233 343.616 220.138 342.683 220.138 341.937C220.138 341.26 219.165 339.933 218.373 339.53C217.786 339.232 215.644 339.167 204.45 339.106C192.519 339.042 190.785 339.081 186.765 339.507C184.313 339.767 180.041 340.047 177.271 340.129C172.725 340.265 172.121 340.331 171.064 340.812C169.837 341.369 168.375 342.618 168.363 343.117C168.36 343.277 167.954 342.562 167.462 341.528C166.97 340.494 166.198 339.039 165.748 338.295C164.847 336.808 162.318 334.048 161.269 333.409L160.603 333.002L162.788 332.847C172.86 332.133 178.643 331.181 187.228 328.826C194.866 326.73 201.644 324.107 208.96 320.414C211.508 319.128 213.629 318.117 213.674 318.167C213.885 318.403 217.498 329.75 219.167 335.417C222.408 346.418 224.712 355.61 226.09 363.036C228.334 375.124 230.916 390.884 231.808 397.938L232.671 404.757L232.539 428.145C232.439 446.039 232.338 451.745 232.112 452.436C231.95 452.933 231.851 453.373 231.892 453.414C232.132 453.651 236.704 453.917 237.251 453.726L237.881 453.506L238.026 449.581C238.363 440.46 238.474 412.632 238.194 407.417C237.631 396.922 235.941 384.036 233.138 368.861C230.767 356.03 225.989 336.457 223.738 330.363C220.967 322.857 219.847 320.243 218.617 318.398C217.908 317.335 217.331 316.287 217.336 316.069C217.341 315.831 218.349 314.997 219.854 313.986C227.725 308.696 235.236 301.009 239.33 294.054C243.839 286.393 247.774 275.482 249.885 264.784C251.888 254.64 252.357 246.975 251.757 234.227C250.646 210.633 246.349 191.905 238.193 175.111C233.538 165.526 229.029 159.063 223.118 153.502C212.586 143.594 197.987 135.163 181.839 129.665C171.663 126.199 162.011 124.588 154.432 125.09ZM166.027 130.903C188.738 134.323 210.147 145.177 222.163 159.363C225.286 163.05 232.424 173.582 234.828 178.05C238.517 184.905 241.783 194.095 245.022 206.726C246.424 212.197 246.437 212.279 246.399 215.305C246.379 216.986 246.522 222.909 246.718 228.468C247.412 248.123 247.078 257.103 245.312 266.19C243.178 277.17 238.305 287.364 230.251 297.691C227.48 301.244 221.755 307.133 218.733 309.539C213.46 313.735 210.028 315.601 201.431 318.946C187.191 324.486 177.028 327.072 165.793 328.016C162.031 328.332 151.339 328.329 147.405 328.012C133.12 326.858 121.038 323.777 107.817 317.915C101.965 315.32 95.7862 311.841 96.1067 311.321C96.1852 311.193 96.1339 311.089 95.9926 311.089C95.5302 311.089 91.0004 308.92 88.779 307.636C82.6586 304.095 79.08 300.71 70.563 290.404C63.2749 281.585 62.3318 280.231 59.46 274.463C55.6991 266.909 52.9547 258.229 51.6944 249.902C51.2021 246.648 51.1969 246.367 51.486 238.34C51.7034 232.3 51.7144 229.687 51.5272 228.509C51.2805 226.959 51.3105 226.751 52.4183 222.354C55.4649 210.262 59.3948 200.633 65.4166 190.507C76.4026 172.033 88.9376 158.641 105.358 147.833C119.732 138.373 134.589 132.613 149.63 130.672C152.884 130.252 162.616 130.389 166.027 130.903ZM132.209 151.782C132.026 152.073 131.576 152.946 131.208 153.721C129.647 157.013 123.96 161.287 117.802 163.798C116.277 164.42 114.336 164.633 106.763 165.007C102.95 165.196 101.368 165.479 99.462 166.316C98.4386 166.765 97.507 167.002 96.7588 167.002C94.8675 167.002 93.0317 167.633 89.8043 169.392C82.5234 173.362 76.6996 178.108 71.5637 184.258C68.8359 187.525 67.5696 189.422 65.9847 192.616C62.9638 198.705 61.8591 203.451 61.6324 211.319C61.4738 216.829 61.7151 220.112 62.6279 224.856C63.2918 228.306 63.7343 229.69 64.9442 232.1C66.9969 236.189 69.0849 239.068 71.4178 241.026L72.7321 242.13L69.7781 242.401C65.9701 242.751 64.5115 243.191 63.3754 244.331C62.3843 245.326 62.2667 245.99 62.9589 246.685C63.5534 247.281 64.2878 247.277 67.2557 246.66C71.5665 245.764 75.6595 246.346 79.8893 248.455C83.6089 250.309 85.9903 252.467 87.8106 255.632C88.4562 256.755 89.2372 257.911 89.5457 258.202C90.3241 258.936 91.2618 258.885 91.9598 258.071C92.4412 257.509 92.5044 257.253 92.3819 256.356C92.1891 254.945 91.3517 253.181 90.1615 251.679L89.1835 250.445H93.6279C101.995 250.445 107.036 249.373 113.205 246.28C117.764 243.994 121.852 240.936 126.198 236.562C132.849 229.868 138.948 220.582 140.255 215.16C141.113 211.602 141.479 208.051 141.486 203.2C141.499 195.606 140.582 190.846 138.158 185.924C136.719 182.999 135.547 181.279 133.557 179.167C129.034 174.37 122.84 170.559 117.248 169.134L115.615 168.718L116.712 168.567C118.359 168.341 121.64 167.51 122.975 166.983C124.462 166.395 128.342 163.753 130.704 161.721C132.113 160.51 132.869 159.597 134.154 157.559C136.566 153.735 136.623 152.764 134.492 151.818C132.919 151.12 132.628 151.115 132.209 151.782ZM162.683 153.4C160.639 154.548 161.595 161.285 164.579 166.767C166.62 170.516 169.244 173.314 173.064 175.811C174.293 176.615 176.162 177.915 177.217 178.7C179.197 180.173 180.668 180.849 183.453 181.564L185.067 181.979L183.336 182.402C181.031 182.966 178.156 184.145 176.313 185.28C174.056 186.671 165.979 192.44 163.451 194.468C157.371 199.343 151.144 206.757 148.022 212.837C145.275 218.187 144.485 221.216 144.313 227.058C144.177 231.676 144.526 235.745 145.434 240.151C146.628 245.944 147.802 248.794 150.932 253.501C154.389 258.7 157.311 262.114 160.258 264.397C163.553 266.949 169.202 270.258 171.389 270.915L172.358 271.206L170.283 271.732C166.797 272.617 165.09 273.743 165.09 275.161C165.09 275.668 165.302 276.144 165.72 276.582C166.237 277.124 166.548 277.241 167.466 277.241C168.807 277.241 180.618 275.803 185.704 275.02C192.428 273.985 193.772 273.852 197.651 273.843C201.092 273.834 201.696 273.893 203.156 274.382C206.52 275.508 208.572 276.914 210.06 279.113C211.458 281.179 212.748 282.127 214.645 282.483C215.797 282.699 215.948 282.462 215.591 280.994C215.155 279.206 214.698 278.236 213.595 276.762C212.046 274.695 209.586 273.022 207.015 272.288L205.967 271.989L207.489 271.66C212.119 270.66 216.317 268.791 220.025 266.079C228.166 260.126 232.95 255.716 234.416 252.812C234.649 252.351 235.134 250.863 235.493 249.505C236.634 245.194 236.558 239.13 235.231 228.586C234.031 219.042 232.678 213.776 229.357 205.721C227.536 201.303 226.824 200.017 224.439 196.84C222.338 194.04 216.965 188.403 215.339 187.29C214.321 186.594 214.259 186.509 214.868 186.651C216.123 186.943 219.51 188.185 221.284 189.003C223.252 189.911 224.824 190.052 225.767 189.404C226.932 188.604 226.937 188.424 225.835 187.201C223.795 184.935 214.981 181.731 207.489 180.532C206.265 180.336 202.207 179.807 198.471 179.357C185.557 177.802 181.825 176.7 175.83 172.675C169.728 168.577 167.048 164.807 165.196 157.717C164.723 155.907 164.24 154.244 164.123 154.021C163.803 153.414 163.156 153.135 162.683 153.4ZM103.718 171.002C108.727 171.478 114.516 172.92 118.713 174.735C125.376 177.618 129.544 180.96 132.811 186.041C135.412 190.086 137.094 198.717 136.636 205.668C136.449 208.493 136.123 210.005 134.849 213.952C132.581 220.98 129.732 225.515 122.737 233.231C120.44 235.765 118.47 237.731 118.478 237.483C118.479 237.437 118.637 236.881 118.829 236.246C120.08 232.108 118.236 229.979 113.242 229.798C110.642 229.705 108.867 230.093 102.898 232.064C99.7661 233.098 99.4731 233.151 96.3824 233.244C91.3693 233.394 86.2948 232.553 82.7432 230.983C81.102 230.257 78.5115 228.216 75.9575 225.635C74.7839 224.45 74.3135 224.147 73.1311 223.814C71.3002 223.298 70.7481 223.311 69.4295 223.896C68.1264 224.474 67.563 225.43 67.162 227.741C67.0116 228.607 66.8568 229.284 66.8181 229.245C66.7795 229.205 66.415 226.846 66.0083 224.002C64.4909 213.389 64.8809 204.646 67.1404 198.624L67.761 196.971L67.9034 201.202C68.0571 205.762 68.1041 206.136 68.9638 209.619C69.9338 213.549 71.467 216.755 73.9699 220.088C76.6361 223.638 79.2632 225.572 82.5426 226.398C85.0416 227.027 91.6783 226.962 95.5192 226.271C109.715 223.716 120.54 217.539 124.203 209.899C124.761 208.735 125.341 207.262 125.492 206.624C126.279 203.289 125.334 195.746 123.354 189.567C122.626 187.294 120.551 183.092 119.23 181.216C117.278 178.442 115.042 176.991 108.024 173.947C103.067 171.797 100.981 171.247 97.6274 171.207C95.2613 171.178 95.2105 171.167 96.2866 170.91C97.5201 170.615 99.9633 170.645 103.718 171.002ZM98.6815 182.135C99.916 182.721 100.793 183.539 101.55 184.811C102.287 186.047 101.788 188.341 100.451 189.869C99.5532 190.895 98.1022 191.502 96.5733 191.492C93.6989 191.472 91.5396 189.56 91.5379 187.033C91.5368 185.528 92.0123 184.309 93.013 183.251C94.601 181.571 96.6445 181.169 98.6815 182.135ZM200.149 186.059C202.723 186.558 208.87 188.8 210.565 189.859C211.851 190.662 212.762 191.543 215.454 194.592C219.697 199.399 221.563 202.155 223.905 207.078C225.967 211.412 227.091 214.932 228.362 221.031C229.876 228.3 230.451 232.69 230.599 238.105C230.745 243.451 230.425 246.244 229.345 249.029L228.717 250.649L228.326 249.784C227.846 248.722 227.226 248.147 226.261 247.869C225.175 247.557 224.373 247.888 222.394 249.466C220.985 250.59 220.381 250.92 219.498 251.049C217.713 251.31 213.014 253.16 209.714 254.901C208.04 255.784 206.353 256.672 205.967 256.873C205.142 257.304 201.78 258.102 198.471 258.653C196.489 258.983 195.225 259.015 190.272 258.864C178.332 258.499 174.598 258.099 170.767 256.773C167.42 255.615 166.919 255.35 165.218 253.831C163.589 252.377 162.595 252.089 161.209 252.67C158.956 253.615 158.192 254.934 158.743 256.933C158.877 257.423 158.945 257.866 158.893 257.918C158.736 258.075 156.688 255.168 155.367 252.914C153.65 249.982 151.213 245.024 150.48 242.974C149.359 239.835 148.512 230.196 148.918 225.187C149.398 219.248 150.554 216.15 154.446 210.369C156.747 206.952 159.867 202.83 159.607 203.553C158.616 206.306 157.498 211.096 156.866 215.305C156.433 218.183 156.501 224.754 156.99 227.293C158.391 234.572 164.254 243.937 169.828 247.798C173.543 250.371 176.495 251.386 180.265 251.386C187.24 251.386 197.261 247.323 206.669 240.681C213.096 236.145 217.807 229.446 219.346 222.66C220.165 219.047 219.316 215.025 216.592 209.619C214.008 204.488 210.446 200.315 206.318 197.583C203.552 195.752 195.4 191.706 192.732 190.84C190.905 190.247 190.364 190.185 186.173 190.092C183.66 190.037 180.293 190.104 178.689 190.242C177.085 190.38 175.74 190.459 175.699 190.418C175.658 190.376 177.576 189.531 179.962 188.539C184.874 186.496 186.6 186.111 192.146 185.821C197.415 185.545 197.51 185.548 200.149 186.059ZM115.81 194.717C117.272 195.612 118.666 200.961 118.405 204.673C118.234 207.093 117.928 208.04 116.86 209.453C114.738 212.261 105.989 217.484 102.547 217.997C96.6621 218.874 90.1022 219.185 88.1095 218.681C85.7956 218.096 84.5476 215.773 84.8727 212.656C85.0816 210.652 85.5487 209.465 86.4164 208.732C87.4656 207.846 88.3227 207.803 91.5452 208.471C96.0174 209.399 96.2076 209.375 100.323 207.336C107.004 204.026 108.321 202.849 110.486 198.247C111.121 196.899 111.887 195.564 112.188 195.281C113.316 194.222 114.66 194.013 115.81 194.717ZM182.476 202.156C183.911 202.647 185.349 204.012 185.679 205.198C186.521 208.221 186.17 210.014 184.421 211.632C180.674 215.098 174.953 212.525 174.934 207.365C174.918 203.201 178.433 200.774 182.476 202.156ZM208.186 209.982C210.156 212.06 210.862 214.755 210.876 220.241C210.884 223.613 210.816 224.421 210.441 225.412C209.072 229.029 205.327 232.684 199.876 235.722C195.131 238.368 191.633 239.025 185.197 238.483C176.986 237.792 173.509 235.399 172.83 229.97C172.384 226.405 173.106 225.666 177.037 225.667C178.39 225.668 180.562 225.811 181.864 225.985C185.314 226.448 186.216 226.076 189.804 222.716C191.997 220.661 193.805 219.294 196.48 217.668C199.637 215.748 200.519 214.953 201.777 212.892C203.628 209.858 204.552 209.079 206.296 209.077C207.189 209.077 207.443 209.198 208.186 209.982ZM116.133 284.761C115.167 284.851 112.637 285.374 110.511 285.925C106.086 287.071 105.687 287.324 104.88 289.488C104.395 290.789 104.388 290.906 104.749 291.46C105.06 291.936 105.325 292.05 106.129 292.05C107.117 292.05 107.729 291.666 108.472 290.58C108.627 290.353 109.093 290.071 109.507 289.952C110.253 289.739 110.265 289.749 110.867 291.068C112.056 293.674 117.154 297.955 123.16 301.391C127.188 303.695 132.533 305.344 138.855 306.231C150.084 307.809 159.808 307.886 164.307 306.433C165.9 305.918 167.037 305.339 168.729 304.18C170.539 302.94 171.074 302.675 171.334 302.892C171.872 303.34 174.783 302.973 177.923 302.06C180.056 301.44 181.375 300.884 183.024 299.91C185.549 298.419 186.093 297.805 185.766 296.817C185.58 296.253 185.409 296.152 184.515 296.084C183.945 296.041 182.359 296.191 180.991 296.417L178.503 296.83L174.315 295.399C169.529 293.763 168.25 293.46 166.127 293.46C164.832 293.46 164.138 293.27 161.395 292.164C158.434 290.97 153.875 289.678 146.506 287.946C144.327 287.433 143.418 287.349 140.098 287.349C137.5 287.349 135.794 287.46 134.906 287.687C132.823 288.22 126.381 288.616 125.32 288.277C123.132 287.577 120.37 286.256 119.37 285.432C118.767 284.935 118.188 284.544 118.082 284.564C117.976 284.583 117.099 284.672 116.133 284.761ZM118.362 290.407C123.251 293.584 123.242 293.583 131.418 292.731C137.06 292.143 142.064 292.215 147.171 292.959C151.265 293.555 153.673 294.252 157.497 295.95L160.499 297.283L164.61 297.581C166.871 297.745 168.745 297.89 168.775 297.903C168.805 297.915 169.041 298.342 169.299 298.851L169.77 299.777L168.074 300.703C167.142 301.213 165.483 301.921 164.388 302.275C163.293 302.63 161.922 303.114 161.343 303.351C159.38 304.152 156.233 304.26 148.459 303.793C144.215 303.538 140.234 303.17 138.652 302.887C134.67 302.172 129.884 300.677 126.591 299.118C123.314 297.565 121.857 296.636 118.155 293.736C115.55 291.695 115.159 291.176 114.891 289.405C114.786 288.716 114.834 288.524 115.111 288.524C115.306 288.524 116.769 289.371 118.362 290.407ZM19.549 294.264C22.0993 295.063 28.151 299.638 30.4576 302.511C32.0636 304.511 32.4888 305.86 32.8664 310.149C33.043 312.153 33.2571 314.178 33.3424 314.65C33.5492 315.794 32.9552 317.586 31.6764 319.674C30.1459 322.174 29.281 322.931 26.3426 324.348C23.1644 325.88 21.2079 326.445 19.0311 326.46C17.619 326.47 17.2028 326.37 16.103 325.753C14.587 324.904 13.2986 323.195 13.2986 322.033C13.2986 321.618 13.5621 320.501 13.8842 319.551C14.2063 318.601 14.4698 317.521 14.4698 317.151C14.4698 316.178 13.631 314.661 11.1805 311.206C7.26183 305.681 5.08708 301.648 5.10512 299.94C5.11496 299.006 5.9798 297.564 7.24684 296.369C9.60055 294.148 11.1339 293.665 15.4068 293.794C17.2079 293.849 18.8022 294.03 19.549 294.264ZM41.965 318.934C46.8872 321.697 56.039 324.941 72.7973 329.866C81.9751 332.562 91.139 335.705 94.8165 337.416C98.4063 339.087 103.732 341.091 105.475 341.427C106.119 341.552 109.018 341.752 111.916 341.872C114.815 341.993 118.004 342.165 119.002 342.255L120.818 342.42V347.001C120.818 349.521 120.695 352.762 120.546 354.204C120.284 356.72 120.299 356.936 120.904 359.598C121.303 361.354 121.615 363.655 121.756 365.872C121.878 367.798 122.041 369.625 122.118 369.933C122.257 370.488 122.226 370.483 117.38 369.156C112.424 367.8 105.737 365.371 101.492 363.386C100.204 362.783 95.5176 360.699 91.0779 358.754C86.6382 356.81 81.4731 354.404 79.5998 353.408C77.7265 352.412 74.191 350.577 71.7432 349.329L67.2925 347.061L60.2318 345.198C53.3888 343.392 53.0945 343.29 50.6916 341.899C49.3281 341.109 46.7078 339.307 44.869 337.895C41.9423 335.649 41.0069 334.742 37.3675 330.628C35.0807 328.042 33.2096 325.833 33.2096 325.718C33.2096 325.603 33.4881 325.253 33.8285 324.939C34.8142 324.032 36.129 321.851 36.9636 319.739C38.0276 317.047 38.1091 316.907 38.526 317.068C38.7249 317.145 40.2724 317.984 41.965 318.934ZM158.14 336.556C160.288 337.819 162.261 340.629 163.56 344.277C165.388 349.41 165.077 352.925 162.566 355.478L161.46 356.603L155.369 357.609C150.212 358.461 148.884 358.602 146.702 358.534C141.348 358.364 140.805 357.234 140.67 345.994C140.604 340.439 140.635 340.307 142.343 338.759C143.534 337.679 144.787 337.037 146.644 336.555C148.405 336.098 152.27 335.787 155.063 335.878C156.76 335.933 157.272 336.046 158.14 336.556Z" fill="#1A7674"/>
</svg>
